<?xml version="1.0" encoding="UTF-8" standalone="no"?>
<!-- Created with Inkscape (http://www.inkscape.org/) -->

<svg
   xmlns:dc="http://purl.org/dc/elements/1.1/"
   xmlns:cc="http://creativecommons.org/ns#"
   xmlns:rdf="http://www.w3.org/1999/02/22-rdf-syntax-ns#"
   xmlns:svg="http://www.w3.org/2000/svg"
   xmlns="http://www.w3.org/2000/svg"
   xmlns:sodipodi="http://sodipodi.sourceforge.net/DTD/sodipodi-0.dtd"
   xmlns:inkscape="http://www.inkscape.org/namespaces/inkscape"
   version="1.1"
   id="svg10"
   width="540"
   height="540"
   viewBox="0 0 540 540"
   sodipodi:docname="Coffre_Ferme.svg"
   inkscape:version="0.92.1 r15371"
   inkscape:export-filename="F:\famille arnou\Documents\Projets C\Caraibes\data\Coffre_Ferme.png"
   inkscape:export-xdpi="96"
   inkscape:export-ydpi="96">
  <metadata
     id="metadata16">
    <rdf:RDF>
      <cc:Work
         rdf:about="">
        <dc:format>image/svg+xml</dc:format>
        <dc:type
           rdf:resource="http://purl.org/dc/dcmitype/StillImage" />
        <dc:title></dc:title>
      </cc:Work>
    </rdf:RDF>
  </metadata>
  <defs
     id="defs14">
    <filter
       inkscape:collect="always"
       style="color-interpolation-filters:sRGB"
       id="filter1792"
       x="-0.52240074"
       width="2.0448015"
       y="-0.53872567"
       height="2.0774512">
      <feGaussianBlur
         inkscape:collect="always"
         stdDeviation="4.7705475"
         id="feGaussianBlur1794" />
    </filter>
  </defs>
  <sodipodi:namedview
     pagecolor="#ffffff"
     bordercolor="#666666"
     borderopacity="1"
     objecttolerance="10"
     gridtolerance="10"
     guidetolerance="10"
     inkscape:pageopacity="0"
     inkscape:pageshadow="2"
     inkscape:window-width="1680"
     inkscape:window-height="987"
     id="namedview12"
     showgrid="false"
     inkscape:zoom="1.4142136"
     inkscape:cx="173.27387"
     inkscape:cy="276.13279"
     inkscape:window-x="-8"
     inkscape:window-y="-8"
     inkscape:window-maximized="1"
     inkscape:current-layer="svg10" />
  <path
     style="fill:#b78847;fill-opacity:1;fill-rule:evenodd;stroke:#000000;stroke-width:1px;stroke-linecap:butt;stroke-linejoin:miter;stroke-opacity:1"
     d="m 2.6956094,290.16203 c 0.07136,-8.05854 10.4680216,-37.12056 17.6832976,-53.224 9.960028,-22.22933 32.70625,-47.51129 57.430993,-54.33062 26.97133,-7.43896 389.24764,-58.09559 389.24764,-58.09559 l -55.54869,150.62236 z"
     id="path3694"
     inkscape:connector-curvature="0"
     sodipodi:nodetypes="cssccc" />
  <path
     style="fill:#6c4224;fill-opacity:1;stroke:#000000;stroke-width:1px;stroke-linecap:butt;stroke-linejoin:miter;stroke-opacity:1"
     d="M 529.22699,285.15274 411.50885,275.13418 c 0,0 9.85073,-161.4927 62.29778,-149.76456 52.44704,11.72814 54.3753,109.07715 55.42036,159.78312 z"
     id="path3690"
     inkscape:connector-curvature="0"
     sodipodi:nodetypes="cczc" />
  <path
     style="fill:#b78847;fill-opacity:1;stroke:#000000;stroke-width:1px;stroke-linecap:butt;stroke-linejoin:miter;stroke-opacity:1"
     d="M 431.54598,508.69198 33.513665,445.80737 c 0,0 -21.865067,-66.57928 -25.672574,-86.41013 C 0.4660653,320.98548 2.6956094,290.16203 2.6956094,290.16203 L 411.50885,275.13418"
     id="path3698"
     inkscape:connector-curvature="0"
     sodipodi:nodetypes="ccscc" />
  <path
     style="fill:#6c4224;fill-opacity:1;stroke:#000000;stroke-width:1.00157475;stroke-linecap:butt;stroke-linejoin:miter;stroke-miterlimit:4;stroke-dasharray:none;stroke-opacity:1"
     d="m 411.50885,275.13418 c 0,0 -3.25978,55.86923 0.31308,97.68101 3.57287,41.81177 11.71745,81.10113 19.72405,135.87679 l 92.04557,-69.5038 5.63544,-154.03544 z"
     id="path3692"
     inkscape:connector-curvature="0"
     sodipodi:nodetypes="czcccc" />
  <path
     style="fill:#999999;fill-opacity:1;stroke:#000000;stroke-width:0.80000001;stroke-linecap:butt;stroke-linejoin:miter;stroke-miterlimit:4;stroke-dasharray:none;stroke-opacity:1"
     d="m 168.5881,286.0876 c 4.96224,-0.0927 5.50254,4.98125 5.5383,9.28969 0.0357,4.30844 -1.7501,11.77115 -6.25319,11.79158 -4.50309,0.0204 -27.72766,0.22511 -31.25986,0.12878 -3.5322,-0.0963 -4.35437,-7.93756 -4.22249,-11.27657 0.11165,-2.82692 0.58686,-8.62808 5.69158,-8.85552 5.10472,-0.22744 25.54343,-0.98529 30.50566,-1.07796 z"
     id="path4524"
     inkscape:connector-curvature="0"
     sodipodi:nodetypes="zzzzszz" />
  <path
     style="fill:#666666;stroke:#000000;stroke-width:0.69999999;stroke-linecap:butt;stroke-linejoin:miter;stroke-miterlimit:4;stroke-dasharray:none;stroke-opacity:1"
     d="m 167.51373,287.97831 c 5.2662,-0.052 4.59231,4.45389 4.62222,8.02812 0.0299,3.57422 -0.9736,9.24976 -5.14698,9.33076 -4.17338,0.081 -23.7317,0.15341 -27.91038,0.2367 -4.17868,0.0833 -4.39827,-5.93558 -4.28788,-8.70558 0.0935,-2.34518 -0.15634,-7.80039 5.51758,-7.99574 5.67392,-0.19535 21.93924,-0.84229 27.20544,-0.89426 z"
     id="path4524-2"
     inkscape:connector-curvature="0"
     sodipodi:nodetypes="zzzzszz" />
  <path
     style="fill:#cccccc;stroke:#000000;stroke-width:0.80000001;stroke-linecap:butt;stroke-linejoin:miter;stroke-miterlimit:4;stroke-dasharray:none;stroke-opacity:1"
     d="m 141.08586,297.3629 c -3.86174,0.1436 -4.83896,0.679 -4.85274,2.42634 -0.0149,1.89304 0.62443,3.1913 1.92759,3.18221 1.30316,-0.009 25.81473,0.0364 28.08456,-0.12018 2.26983,-0.15654 3.48743,-1.49663 3.33089,-3.21857 -0.19438,-4.52498 -4.31713,-3.82644 -6.33987,-3.75696 -1.28637,-1.16062 -2.65311,-4.07427 -8.14009,-6.88777 -4.72452,-2.42254 -8.46932,-0.80897 -11.03607,1.01751 -2.55132,1.8155 -3.23757,5.35872 -3.05254,8.3749 0.16883,2.75211 3.87438,4.10917 7.94442,3.95263 4.07004,-0.15654 1.69055,-7.42179 2.56392,-11.12614 0.27933,-1.18476 0.60601,-2.14063 2.40622,-0.73177 1.80021,1.40886 4.23051,4.01864 4.22658,6.57469 -0.003,2.14922 -1.07286,4.0052 -3.36561,4.22658 -2.33723,0.22568 -3.83523,0.15654 -3.83523,0.15654"
     id="path28"
     inkscape:connector-curvature="0"
     sodipodi:nodetypes="cszsccssssssssc" />
  <ellipse
     style="opacity:0.86100003;fill:#ffffff;fill-opacity:1;fill-rule:evenodd;stroke:#040505;stroke-width:0.69999999;stroke-miterlimit:4;stroke-dasharray:none;stroke-opacity:1;filter:url(#filter1792)"
     id="path854"
     cx="-39.737907"
     cy="248.71225"
     rx="10.958364"
     ry="10.626293"
     transform="matrix(0.16862888,0,0,0.32152852,153.81627,216.12527)" />
  <g
     id="g1822"
     transform="rotate(84.692236,71.320515,192.39533)">
    <path
       sodipodi:nodetypes="cczzzzsszzsszcsssc"
       inkscape:connector-curvature="0"
       id="path1804"
       d="m 164.37547,121.47345 c -1.36352,-2.52573 -4.00367,-1.48656 -5.96145,-0.53193 -2.14747,-0.31689 -5.38063,-1.5925 -7.63965,2.01761 -2.25902,3.61011 -1.20862,9.04544 3.97103,8.19975 5.17965,-0.84569 6.64855,2.66803 3.18159,4.11089 -3.46696,1.44286 -10.76569,-0.79401 -11.73114,-5.89664 -0.96545,-5.10262 0.99702,-9.72228 4.68313,-11.55739 3.07343,-1.53008 6.94478,-0.38347 9.66552,-1.08742 1.91244,-0.49481 1.23504,-3.20135 4.03973,-7.74226 2.80468,-4.54092 16.26166,-7.89868 21.52663,-7.51272 5.26497,0.38596 7.3151,1.62716 9.74051,4.96825 1.82134,2.50896 4.24132,1.50956 6.55199,2.84483 1.11705,0.64551 2.83991,3.95923 0.94049,4.72538 -1.89943,0.76614 -5.8719,-1.8917 -5.8719,-1.8917 0,0 -0.24107,2.68292 -1.2176,4.20625 -0.90892,1.41786 -3.83526,3.71035 -4.6771,0.6957 -0.54868,-1.96484 1.58223,-4.84451 0.526,-7.64532 -1.57893,-4.18687 -6.89984,-4.03791 -9.07641,-3.78729 l -12.7895,5.3192 z"
       style="fill:#cccccc;fill-opacity:1;stroke:#000000;stroke-width:0.80000001;stroke-linecap:butt;stroke-linejoin:miter;stroke-miterlimit:4;stroke-dasharray:none;stroke-opacity:1" />
    <path
       sodipodi:nodetypes="ssszzsczcczcczs"
       inkscape:connector-curvature="0"
       id="path1802"
       d="m 187.06704,115.6622 c 0.22139,7.74834 -0.88553,12.2313 -3.54209,16.82496 -2.66911,4.61535 -9.1211,8.22491 -10.6263,6.19867 -2.87796,-3.87417 1.84895,-4.44057 5.09176,-8.63386 3.24282,-4.19329 4.22569,-8.10182 4.31693,-10.84768 0.0913,-2.74586 1.27905,-9.72996 -3.65278,-9.07662 -4.76302,0.63097 -8.43237,4.22884 -9.4087,6.58608 -1.51711,5.26684 -0.8784,10.22607 -4.98108,13.11684 -4.10268,2.89077 -9.74077,1.1069 -9.51938,-1.99243 0.22138,-3.09934 2.22964,-6.952 3.11517,-6.73061 0.88552,0.22138 -1.57946,2.60297 0.42692,4.73818 2.00638,2.13521 5.22799,0.40997 5.75592,-2.15847 0.60879,-3.09934 1.1069,-9.79611 4.42761,-12.67407 4.16024,-3.04739 13.42945,-5.71597 14.72186,-5.3684 1.29241,0.34757 3.71047,4.28849 3.87416,10.01741 z"
       style="fill:#999999;fill-opacity:1;stroke:#000000;stroke-width:0.80000001;stroke-linecap:butt;stroke-linejoin:miter;stroke-miterlimit:4;stroke-dasharray:none;stroke-opacity:1" />
    <ellipse
       ry="3.725286"
       rx="3.803556"
       cy="122.9231"
       cx="160.64926"
       id="path1817"
       style="opacity:1;fill:#ffffff;fill-opacity:1;fill-rule:evenodd;stroke:#040505;stroke-width:0.84162223;stroke-miterlimit:4;stroke-dasharray:none;stroke-opacity:1" />
  </g>
  <path
     style="fill:none;stroke:#000000;stroke-width:1px;stroke-linecap:butt;stroke-linejoin:miter;stroke-opacity:1"
     d="m 378.94852,500.5519 c 0,0 -13.72482,-101.50044 -15.96709,-122.10127 -5.00928,-46.02279 -3.1308,-102.06413 -3.1308,-102.06413 v 0"
     id="path1824"
     inkscape:connector-curvature="0"
     sodipodi:nodetypes="cscc" />
  <path
     style="fill:#9e872b;fill-opacity:1;stroke:#000000;stroke-width:1px;stroke-linecap:butt;stroke-linejoin:miter;stroke-opacity:1"
     d="m 274.86264,152.09126 22.35444,-3.29809 c 0,0 -17.1579,11.93255 -31.8198,56.03821 -8.32826,25.05292 -12.72793,76.01398 -12.72793,76.01398 l -19.23497,0.95124 c 0,0 2.30684,-43.72037 13.04779,-75.02068 14.36284,-41.85491 28.38047,-54.68466 28.38047,-54.68466 z"
     id="path2004"
     inkscape:connector-curvature="0"
     sodipodi:nodetypes="ccsccsc" />
  <path
     style="fill:#9e872b;fill-opacity:1;stroke:#000000;stroke-width:1px;stroke-linecap:butt;stroke-linejoin:miter;stroke-opacity:1"
     d="m 90.75,287.25 c 0,0 -0.42377,-28.85139 13.25,-58.25 20,-43 47.75,-58.75 47.75,-58.75 l -18,2.75 c 0,0 -24.0481,14.68718 -42.048097,51.68718 C 76.910321,255.0921 75.37868,287.25 75.37868,287.25 Z"
     id="path2010"
     inkscape:connector-curvature="0"
     sodipodi:nodetypes="csccscc" />
  <path
     style="fill:none;stroke:#000000;stroke-width:1px;stroke-linecap:butt;stroke-linejoin:miter;stroke-opacity:1"
     d="M 369.49264,443.9206 45.630173,406.72857 c 0,0 -7.668391,-8.38941 -16.824964,-51.80318 -3.967169,-18.80942 -3.781574,-66.41433 -3.781574,-66.41433"
     id="path1826"
     inkscape:connector-curvature="0"
     sodipodi:nodetypes="ccsc" />
  <path
     style="fill:none;stroke:#000000;stroke-width:1px;stroke-linecap:butt;stroke-linejoin:miter;stroke-opacity:1"
     d="m 61.772899,408.94238 6.198671,42.50517"
     id="path1836"
     inkscape:connector-curvature="0" />
  <path
     style="fill:#9e872b;fill-opacity:1;stroke:#000000;stroke-width:1px;stroke-linecap:butt;stroke-linejoin:miter;stroke-opacity:1"
     d="m 233.43438,281.7966 19.23497,-0.95124 c 0,0 -2.12385,45.60856 0.17678,79.01918 2.01373,29.24417 10.88074,72.14779 10.86549,71.92667 l -18.82044,-2.45342 c 0,0 -9.94055,-30.3002 -12.06187,-71.66595 -2.12132,-41.36575 0.60507,-75.87524 0.60507,-75.87524 z"
     id="path2006"
     inkscape:connector-curvature="0"
     sodipodi:nodetypes="ccsccsc" />
  <ellipse
     style="opacity:1;fill:#d3bc5f;fill-opacity:1;fill-rule:evenodd;stroke:#040505;stroke-width:0.85287964;stroke-miterlimit:4;stroke-dasharray:none;stroke-opacity:1"
     id="path1838"
     cx="190.37024"
     cy="395.66559"
     rx="6.8885584"
     ry="11.029674"
     transform="matrix(0.9834147,-0.18137125,0.13950255,0.99022171,0,0)" />
  <ellipse
     style="opacity:1;fill:#d3bc5f;fill-opacity:1;fill-rule:evenodd;stroke:#040505;stroke-width:0.80000001;stroke-miterlimit:4;stroke-dasharray:none;stroke-opacity:1"
     id="path1840"
     cx="260.01019"
     cy="281.43991"
     rx="6.5746837"
     ry="12.523207"
     transform="rotate(3.5165341)" />
  <ellipse
     style="opacity:1;fill:#d3bc5f;fill-opacity:1;fill-rule:evenodd;stroke:#040505;stroke-width:0.84840345;stroke-miterlimit:4;stroke-dasharray:none;stroke-opacity:1"
     id="path1842"
     cx="98.647377"
     cy="494.59158"
     rx="5.411047"
     ry="9.8401537"
     transform="matrix(0.8747538,-0.48456762,0.33519093,0.94215022,0,0)" />
  <path
     style="fill:#9e872b;fill-opacity:1;stroke:#000000;stroke-width:1px;stroke-linecap:butt;stroke-linejoin:miter;stroke-opacity:1"
     d="m 75.37868,287.25 c 0,0 -3.209426,29.8549 1.87132,66.75 4.500374,32.68058 9.75,57.25 9.75,57.25 l 15.25,2 c 0,0 -7.110697,-30.63067 -10.25,-65.5 -3.957847,-43.96118 -1.25,-60.5 -1.25,-60.5 z"
     id="path2012"
     inkscape:connector-curvature="0"
     sodipodi:nodetypes="csccscc" />
  <ellipse
     style="opacity:1;fill:#d3bc5f;fill-opacity:1;fill-rule:evenodd;stroke:#040505;stroke-width:0.91848171;stroke-miterlimit:4;stroke-dasharray:none;stroke-opacity:1"
     id="path1844"
     cx="-30.70368"
     cy="411.41919"
     rx="5.2644072"
     ry="7.9272981"
     transform="matrix(0.98126972,-0.19263885,0.29515747,0.95544862,0,0)" />
  <ellipse
     style="opacity:1;fill:#d3bc5f;fill-opacity:1;fill-rule:evenodd;stroke:#040505;stroke-width:0.80000001;stroke-miterlimit:4;stroke-dasharray:none;stroke-opacity:1"
     id="path1846"
     cx="48.58316"
     cy="355.12903"
     rx="5.6354432"
     ry="8.9227848"
     transform="rotate(-5.7789918)" />
  <ellipse
     style="opacity:1;fill:#d3bc5f;fill-opacity:1;fill-rule:evenodd;stroke:#040505;stroke-width:0.75048906;stroke-miterlimit:4;stroke-dasharray:none;stroke-opacity:1"
     id="path1848"
     cx="120.51646"
     cy="283.16263"
     rx="5.0964537"
     ry="9.8635683"
     transform="matrix(0.98670994,0.16249155,-0.12508066,0.99214658,0,0)" />
  <path
     style="fill:#9e872b;fill-opacity:1;stroke:#000000;stroke-width:1px;stroke-linecap:butt;stroke-linejoin:miter;stroke-opacity:1"
     d="m 359.85063,276.3865 0.344,57.2863 50.03214,-0.44276 1.54161,-58.04153 z"
     id="path1850"
     inkscape:connector-curvature="0"
     sodipodi:nodetypes="ccccc" />
  <path
     style="fill:#9e872b;fill-opacity:1;stroke:#000000;stroke-width:1px;stroke-linecap:butt;stroke-linejoin:miter;stroke-opacity:1"
     d="m 411.50885,275.13418 5.22887,-43.95207 -51.56472,3.09511 -5.32237,42.10928 51.91775,-1.19799"
     id="path1856"
     inkscape:connector-curvature="0"
     sodipodi:nodetypes="ccc" />
  <path
     style="fill:#554400;stroke:#000000;stroke-width:1px;stroke-linecap:butt;stroke-linejoin:miter;stroke-opacity:1"
     d="m 411.50885,275.13418 1.63637,-19.94692 3.5925,-24.00515 19.0979,5.00929 -4.22659,40.07425 -20.10018,-1.13147"
     id="path1858"
     inkscape:connector-curvature="0"
     sodipodi:nodetypes="cccccc" />
  <path
     style="fill:#554400;stroke:#000000;stroke-width:1px;stroke-linecap:butt;stroke-linejoin:miter;stroke-opacity:1"
     d="m 410.22677,333.23004 20.36706,2.21381 1.0152,-59.1782 -20.10018,-1.13147 z"
     id="path1860"
     inkscape:connector-curvature="0"
     sodipodi:nodetypes="ccc" />
  <path
     style="fill:#9e872b;fill-opacity:1;stroke:#000000;stroke-width:1.0106709px;stroke-linecap:butt;stroke-linejoin:miter;stroke-opacity:1"
     d="m 3.6430144,329.03195 22.3893496,-0.005 c 0,0 -0.763218,-14.20226 -0.906371,-20.8482 -0.143154,-6.64593 0.0071,-19.01698 0.0071,-19.01698 l -22.4374996,1 c 0,0 -0.3884727,11.60645 -0.2465985,18.08921 0.1418741,6.48276 1.1940035,20.78071 1.1940035,20.78071 z"
     id="path1862"
     inkscape:connector-curvature="0"
     sodipodi:nodetypes="cczcczc" />
  <path
     style="fill:#9e872b;fill-opacity:1;stroke:#000000;stroke-width:1px;stroke-linecap:butt;stroke-linejoin:miter;stroke-opacity:1"
     d="m 13.069055,254.19699 21.473967,-0.66414 -9.519387,34.97821 -22.3280416,1.65071 c 0,0 1.7986132,-10.92472 4.9627578,-19.7458 3.1641448,-8.82109 5.4107038,-16.21898 5.4107038,-16.21898 z"
     id="path1864"
     inkscape:connector-curvature="0"
     sodipodi:nodetypes="cccczc"
     inkscape:export-xdpi="96"
     inkscape:export-ydpi="96" />
  <ellipse
     style="opacity:1;fill:#d3bc5f;fill-opacity:1;fill-rule:evenodd;stroke:#040505;stroke-width:0.80520892;stroke-miterlimit:4;stroke-dasharray:none;stroke-opacity:1"
     id="path1866"
     cx="402.72565"
     cy="287.56586"
     rx="6.2358899"
     ry="7.3586245"
     transform="matrix(0.99900165,-0.04467327,-0.11582501,0.99326963,0,0)" />
  <ellipse
     style="opacity:1;fill:#d3bc5f;fill-opacity:1;fill-rule:evenodd;stroke:#040505;stroke-width:0.80520892;stroke-miterlimit:4;stroke-dasharray:none;stroke-opacity:1"
     id="path1866-5"
     cx="403.62173"
     cy="262.90472"
     rx="6.2358899"
     ry="7.3586245"
     transform="matrix(0.99900165,-0.04467327,-0.11582501,0.99326963,0,0)" />
  <ellipse
     style="opacity:1;fill:#d3bc5f;fill-opacity:1;fill-rule:evenodd;stroke:#040505;stroke-width:0.80520892;stroke-miterlimit:4;stroke-dasharray:none;stroke-opacity:1"
     id="path1866-6"
     cx="436.77789"
     cy="262.44901"
     rx="6.2358899"
     ry="7.3586245"
     transform="matrix(0.99900165,-0.04467327,-0.11582501,0.99326963,0,0)" />
  <ellipse
     style="opacity:1;fill:#d3bc5f;fill-opacity:1;fill-rule:evenodd;stroke:#040505;stroke-width:0.80184406;stroke-miterlimit:4;stroke-dasharray:none;stroke-opacity:1"
     id="path1866-4"
     cx="417.36252"
     cy="285.42017"
     rx="6.4562759"
     ry="7.7366581"
     transform="matrix(0.99895911,-0.04561471,-0.05024176,0.99873709,0,0)" />
  <ellipse
     style="opacity:1;fill:#decd87;fill-opacity:1;fill-rule:evenodd;stroke:#040505;stroke-width:0.80285257;stroke-miterlimit:4;stroke-dasharray:none;stroke-opacity:1"
     id="path1866-3"
     cx="76.872108"
     cy="282.65439"
     rx="3.4649484"
     ry="5.2604737"
     transform="matrix(0.99704891,0.07676899,-0.19477154,0.98084864,0,0)" />
  <ellipse
     style="opacity:1;fill:#d3bc5f;fill-opacity:1;fill-rule:evenodd;stroke:#040505;stroke-width:0.80000001;stroke-miterlimit:4;stroke-dasharray:none;stroke-opacity:1"
     id="path58"
     cx="382.77173"
     cy="304.83252"
     rx="6.3814287"
     ry="8.6493244"
     transform="rotate(2.7335926)" />
  <ellipse
     style="opacity:1;fill:#d3bc5f;fill-opacity:1;fill-rule:evenodd;stroke:#040505;stroke-width:0.80000001;stroke-miterlimit:4;stroke-dasharray:none;stroke-opacity:1"
     id="path58-1"
     cx="424.78244"
     cy="291.31104"
     rx="6.3679352"
     ry="9.1661606"
     transform="rotate(4.2751564)" />
  <ellipse
     style="opacity:1;fill:#d3bc5f;fill-opacity:1;fill-rule:evenodd;stroke:#040505;stroke-width:0.80000001;stroke-miterlimit:4;stroke-dasharray:none;stroke-opacity:1"
     id="path58-4"
     cx="422.66074"
     cy="253.1497"
     rx="6.3814287"
     ry="8.6493244"
     transform="rotate(4.5801098)" />
  <ellipse
     style="opacity:1;fill:#d3bc5f;fill-opacity:1;fill-rule:evenodd;stroke:#040505;stroke-width:0.80000001;stroke-miterlimit:4;stroke-dasharray:none;stroke-opacity:1"
     id="path58-0"
     cx="412.3114"
     cy="218.01204"
     rx="6.2206674"
     ry="8.3106174"
     transform="matrix(0.98460596,0.17478873,-0.17492344,0.98458204,0,0)" />
  <ellipse
     style="opacity:1;fill:#decd87;fill-opacity:1;fill-rule:evenodd;stroke:#040505;stroke-width:0.80347878;stroke-miterlimit:4;stroke-dasharray:none;stroke-opacity:1"
     id="path1866-3-2"
     cx="-30.869438"
     cy="316.7486"
     rx="4.2236981"
     ry="5.596036"
     transform="matrix(0.95865457,-0.28457235,0.15636355,0.98769957,0,0)" />
  <ellipse
     style="opacity:1;fill:#decd87;fill-opacity:1;fill-rule:evenodd;stroke:#040505;stroke-width:0.80285341;stroke-miterlimit:4;stroke-dasharray:none;stroke-opacity:1"
     id="path1866-3-9-6"
     cx="18.731621"
     cy="298.64124"
     rx="3.8680305"
     ry="5.2417269"
     transform="matrix(0.99662417,-0.08209909,-0.03699677,0.99931539,0,0)" />
  <ellipse
     style="opacity:1;fill:#decd87;fill-opacity:1;fill-rule:evenodd;stroke:#040505;stroke-width:0.80264735;stroke-miterlimit:4;stroke-dasharray:none;stroke-opacity:1"
     id="path1866-3-0-7"
     cx="29.864899"
     cy="299.0282"
     rx="4.125422"
     ry="5.6354775"
     transform="matrix(0.99676332,-0.08039202,-0.03434436,0.99941006,0,0)" />
  <ellipse
     style="opacity:1;fill:#decd87;fill-opacity:1;fill-rule:evenodd;stroke:#040505;stroke-width:0.80432767;stroke-miterlimit:4;stroke-dasharray:none;stroke-opacity:1"
     id="path1866-3-8-5"
     cx="-35.882153"
     cy="314.83749"
     rx="4.1030016"
     ry="5.2285347"
     transform="matrix(0.96054335,-0.27813031,0.1347985,0.99087303,0,0)" />
  <ellipse
     style="opacity:1;fill:#decd87;fill-opacity:1;fill-rule:evenodd;stroke:#040505;stroke-width:0.80285257;stroke-miterlimit:4;stroke-dasharray:none;stroke-opacity:1"
     id="path1866-3-6"
     cx="82.714935"
     cy="281.29541"
     rx="3.4649484"
     ry="5.2604737"
     transform="matrix(0.98969934,0.1431615,-0.25981925,0.96565727,0,0)" />
  <ellipse
     style="opacity:1;fill:#decd87;fill-opacity:1;fill-rule:evenodd;stroke:#040505;stroke-width:0.80285257;stroke-miterlimit:4;stroke-dasharray:none;stroke-opacity:1"
     id="path1866-3-6-4"
     cx="103.60442"
     cy="253.29256"
     rx="3.4649484"
     ry="5.2604737"
     transform="matrix(0.98403499,0.17797509,-0.29371241,0.95589383,0,0)" />
  <ellipse
     style="opacity:1;fill:#decd87;fill-opacity:1;fill-rule:evenodd;stroke:#040505;stroke-width:0.80285257;stroke-miterlimit:4;stroke-dasharray:none;stroke-opacity:1"
     id="path1866-3-6-2"
     cx="105.50938"
     cy="251.95273"
     rx="3.4649484"
     ry="5.2604737"
     transform="matrix(0.9731535,0.23015706,-0.34423043,0.9388852,0,0)" />
  <path
     style="fill:#cccccc;stroke:#000000;stroke-width:0.80000001;stroke-linecap:butt;stroke-linejoin:miter;stroke-miterlimit:4;stroke-dasharray:none;stroke-opacity:1"
     d="m 157.65062,295.99823 c 2.95336,-0.071 3.41016,-0.54287 4.86618,-1.34009 0,0 -1.93362,-2.85667 -7.4206,-5.67017 -4.72452,-2.42254 -8.46932,-0.80897 -11.03607,1.01751 -2.55132,1.8155 -3.23757,5.35872 -3.05254,8.3749 0.16883,2.75211 3.87438,4.10917 7.94442,3.95263 4.07004,-0.15654 1.69055,-7.42179 2.56392,-11.12614 0.27933,-1.18476 0.60601,-2.14063 2.40622,-0.73177 1.80021,1.40886 3.7324,2.96708 3.72847,5.52313"
     id="path28-2"
     inkscape:connector-curvature="0"
     sodipodi:nodetypes="ccssssssc" />
  <ellipse
     style="opacity:1;fill:#d3bc5f;fill-opacity:1;fill-rule:evenodd;stroke:#040505;stroke-width:0.80210215;stroke-miterlimit:4;stroke-dasharray:none;stroke-opacity:1"
     id="path1840-9"
     cx="271.78366"
     cy="266.52332"
     rx="6.5746837"
     ry="12.589108"
     transform="matrix(1,0,-0.1021864,0.99476527,0,0)" />
  <ellipse
     style="opacity:1;fill:#d3bc5f;fill-opacity:1;fill-rule:evenodd;stroke:#040505;stroke-width:0.7337839;stroke-miterlimit:4;stroke-dasharray:none;stroke-opacity:1"
     id="path1848-0"
     cx="129.58696"
     cy="245.39919"
     rx="5.0040455"
     ry="9.6034775"
     transform="matrix(0.97675947,0.21433839,-0.16714904,0.98593164,0,0)" />
  <ellipse
     style="opacity:1;fill:#d3bc5f;fill-opacity:1;fill-rule:evenodd;stroke:#040505;stroke-width:0.66422528;stroke-miterlimit:4;stroke-dasharray:none;stroke-opacity:1"
     id="path1840-9-4"
     cx="312.55734"
     cy="134.77908"
     rx="5.5567136"
     ry="10.214645"
     transform="matrix(0.97109605,0.23868903,-0.34069724,0.94017306,0,0)" />
  <path
     style="opacity:0;fill:#504416;fill-opacity:1;fill-rule:evenodd;stroke:#040505;stroke-width:0.5;stroke-miterlimit:4;stroke-dasharray:none;stroke-opacity:1"
     d="m 411.07486,312.38108 c 0.28258,-17.69976 0.93501,-35.87182 1.301,-36.23639 0.17978,-0.17908 18.06814,1.24663 18.30553,1.45896 0.12301,0.11002 -18.53753,50.04801 -19.4413,52.02743 -0.27917,0.61143 -0.34337,-6.09145 -0.16523,-17.25 z"
     id="path1192"
     inkscape:connector-curvature="0" />
  <path
     style="opacity:0;fill:#504416;fill-opacity:1;fill-rule:evenodd;stroke:#040505;stroke-width:0.5;stroke-miterlimit:4;stroke-dasharray:none;stroke-opacity:1"
     d="m 411.07486,312.38108 c 0.28258,-17.69976 0.93501,-35.87182 1.301,-36.23639 0.17978,-0.17908 18.06814,1.24663 18.30553,1.45896 0.12301,0.11002 -18.53753,50.04801 -19.4413,52.02743 -0.27917,0.61143 -0.34337,-6.09145 -0.16523,-17.25 z"
     id="path1194"
     inkscape:connector-curvature="0" />
  <path
     style="opacity:0;fill:#504416;fill-opacity:1;fill-rule:evenodd;stroke:#040505;stroke-width:0.5;stroke-miterlimit:4;stroke-dasharray:none;stroke-opacity:1"
     d="m 419.65879,275.12708 c -3.79316,-0.34246 -7.01634,-0.74234 -7.16262,-0.88861 -0.51883,-0.51883 3.23464,-36.05001 4.22936,-40.03608 0.29134,-1.16748 1.61106,2.40443 7.21822,19.53656 3.77393,11.53089 6.8617,21.23005 6.8617,21.55369 0,0.70691 -1.77498,0.68055 -11.14666,-0.16556 z"
     id="path1196"
     inkscape:connector-curvature="0" />
  <path
     style="opacity:0;fill:#504416;fill-opacity:1;fill-rule:evenodd;stroke:#040505;stroke-width:0.5;stroke-miterlimit:4;stroke-dasharray:none;stroke-opacity:1"
     d="m 479.30545,280.23911 c -25.7125,-2.20821 -46.79456,-4.04293 -46.84902,-4.07716 -0.0545,-0.0342 0.8569,-9.13407 2.02525,-20.22186 2.11855,-20.10538 2.12151,-20.16061 1.09902,-20.53034 -0.56389,-0.2039 -4.85025,-1.34558 -9.52525,-2.53707 -4.675,-1.19148 -8.58278,-2.22854 -8.68395,-2.30458 -0.10117,-0.076 0.53294,-4.36797 1.40914,-9.53763 8.78861,-51.85412 22.72788,-84.56242 39.56206,-92.83183 6.73081,-3.30636 11.45277,-3.48792 19.68199,-0.75675 14.27358,4.7372 25.89719,17.40832 33.96752,37.02865 7.64043,18.57518 12.58559,44.27059 14.80169,76.91054 0.75384,11.10302 1.49711,29.19234 1.50488,36.625 0.007,6.29844 -0.007,6.37423 -1.11833,6.31148 -0.61875,-0.0349 -22.1625,-1.87024 -47.875,-4.07845 z"
     id="path1198"
     inkscape:connector-curvature="0" />
  <path
     style="opacity:0;fill:#504416;fill-opacity:1;fill-rule:evenodd;stroke:#040505;stroke-width:0.5;stroke-miterlimit:4;stroke-dasharray:none;stroke-opacity:1"
     d="m 430.65515,497.97347 c -0.76527,-5.13832 -3.39792,-21.82989 -5.85033,-37.09239 -8.59146,-53.46885 -10.3261,-65.95737 -12.22304,-88 -0.71966,-8.36252 -2.03329,-38.44839 -1.69049,-38.71697 0.0903,-0.0707 4.66416,0.36623 10.16416,0.97105 5.5,0.60482 10.04346,1.07036 10.09658,1.03455 0.0531,-0.0358 0.34914,-13.10518 0.65782,-29.04304 0.30869,-15.93785 0.66229,-29.07896 0.7858,-29.20246 0.30891,-0.30892 95.19853,7.77893 95.56501,8.14542 0.16182,0.16181 -0.95993,34.53111 -2.49277,76.37621 -2.59867,70.94128 -2.84865,76.14002 -3.69971,76.94067 -0.66111,0.62195 -72.69838,55.05034 -88.41717,66.80437 l -1.50444,1.12498 z"
     id="path1200"
     inkscape:connector-curvature="0" />
  <path
     style="opacity:0;fill:#504416;fill-opacity:1;fill-rule:evenodd;stroke:#040505;stroke-width:0.5;stroke-miterlimit:4;stroke-dasharray:none;stroke-opacity:1"
     d="m 405.05545,503.79903 c -13.75,-2.19473 -25.13959,-4.14286 -25.31019,-4.32918 -0.46745,-0.51053 -13.74599,-101.02277 -15.89779,-120.33877 -1.05282,-9.4508 -2.27503,-25.65402 -2.8319,-37.54336 l -0.32989,-7.04336 24.12872,-0.34613 c 13.2708,-0.19038 24.20453,-0.27033 24.29718,-0.17769 0.0926,0.0926 0.40367,6.79292 0.69115,14.8895 1.07508,30.27756 3.16937,47.7992 12.99503,108.72104 2.17329,13.475 4.75457,29.7875 5.73618,36.25 0.98161,6.4625 1.89855,12.25625 2.03765,12.875 0.1391,0.61875 0.0799,1.10438 -0.13162,1.07918 -0.21149,-0.0252 -11.63452,-1.8415 -25.38452,-4.03623 z"
     id="path1202"
     inkscape:connector-curvature="0" />
  <path
     style="opacity:0;fill:#504416;fill-opacity:1;fill-rule:evenodd;stroke:#040505;stroke-width:0.5;stroke-miterlimit:4;stroke-dasharray:none;stroke-opacity:1"
     d="m 430.65515,497.97347 c -0.76527,-5.13832 -3.39792,-21.82989 -5.85033,-37.09239 -8.59146,-53.46885 -10.3261,-65.95737 -12.22304,-88 -0.71966,-8.36252 -2.03329,-38.44839 -1.69049,-38.71697 0.0903,-0.0707 4.66416,0.36623 10.16416,0.97105 5.5,0.60482 10.04346,1.07036 10.09658,1.03455 0.0531,-0.0358 0.34914,-13.10518 0.65782,-29.04304 0.30869,-15.93785 0.66229,-29.07896 0.7858,-29.20246 0.30891,-0.30892 95.19853,7.77893 95.56501,8.14542 0.16182,0.16181 -0.95993,34.53111 -2.49277,76.37621 -2.59867,70.94128 -2.84865,76.14002 -3.69971,76.94067 -0.66111,0.62195 -72.69838,55.05034 -88.41717,66.80437 l -1.50444,1.12498 z"
     id="path1204"
     inkscape:connector-curvature="0" />
  <ellipse
     style="opacity:1;fill:#d3bc5f;fill-opacity:1;fill-rule:evenodd;stroke:#040505;stroke-width:0.50520122;stroke-miterlimit:4;stroke-dasharray:none;stroke-opacity:1"
     id="path1840-9-4-6"
     cx="180.39452"
     cy="162.57881"
     rx="4.1650953"
     ry="7.8834138"
     transform="matrix(0.9526717,0.30400103,-0.38100024,0.92457494,0,0)" />
  <path
     style="fill:#000000;fill-opacity:0.36016953;stroke:none;stroke-width:1px;stroke-linecap:butt;stroke-linejoin:miter;stroke-opacity:1"
     d="M 523.59155,439.18818 454.5,492 c 0,0 -11,-40.5 -4,-69 7,-28.5 37.5,-57 43,-82 5.5,-25 -26.5,-30.5 -38.5,-95 -12,-64.5 12.05754,-121.48818 12.05754,-121.48818 0,0 30.60105,-0.86484 47.44246,43.73818 15.22827,40.33077 14.72699,116.90274 14.72699,116.90274 z"
     id="path2014"
     inkscape:connector-curvature="0"
     sodipodi:nodetypes="ccssscscc" />
</svg>
